<svg width="128" height="81" viewBox="0 0 128 81" fill="none" xmlns="http://www.w3.org/2000/svg">
<path d="M64 81C99.3462 81 128 74.732 128 67C128 59.268 99.3462 53 64 53C28.6538 53 0 59.268 0 67C0 74.732 28.6538 81 64 81Z" fill="#e5e5e5"/>
<path d="M110 26.52L89.708 3.516C88.734 1.948 87.312 1 85.814 1H42.186C40.688 1 39.266 1.948 38.292 3.514L18 26.522V45H110V26.52Z" stroke="#c9c9c9"/>
<path d="M83.226 32.862C83.226 29.652 85.214 27.002 87.68 27H110V63.274C110 67.52 107.36 71 104.1 71H23.9C20.64 71 18 67.518 18 63.274V27H40.32C42.786 27 44.774 29.646 44.774 32.856V32.9C44.774 36.11 46.784 38.702 49.248 38.702H78.752C81.216 38.702 83.226 36.086 83.226 32.876V32.862V32.862Z" fill="#eaeaea" stroke="#c9c9c9"/>
</svg>
